<svg width="160" height="160" viewBox="0 0 160 160" fill="none" xmlns="http://www.w3.org/2000/svg">
<path d="M152 0H8C3.58172 0 0 3.58172 0 8V152C0 156.418 3.58172 160 8 160H152C156.418 160 160 156.418 160 152V8C160 3.58172 156.418 0 152 0Z" fill="#1F2E2E"/>
<path d="M120.853 111.126C114.563 118.113 106.317 123.048 97.187 125.29C88.0571 127.533 78.4638 126.98 69.652 123.703C60.8401 120.426 53.2166 114.576 47.7705 106.912C42.3244 99.2491 39.3072 90.1258 39.1103 80.7264C38.9134 71.327 41.5459 62.0854 46.6664 54.2007C51.7868 46.3159 59.1587 40.1521 67.8255 36.5089C76.4924 32.8656 86.0542 31.9113 95.27 33.7695C104.486 35.6278 112.931 40.2129 119.509 46.93" stroke="white" stroke-width="18.2"/>
</svg>
