<svg width="160" height="160" viewBox="0 0 160 160" fill="none" xmlns="http://www.w3.org/2000/svg">
<path d="M152 0H8C3.58172 0 0 3.58172 0 8V152C0 156.418 3.58172 160 8 160H152C156.418 160 160 156.418 160 152V8C160 3.58172 156.418 0 152 0Z" fill="white"/>
<path d="M120.853 111.126C114.563 118.113 106.317 123.048 97.1866 125.29C88.0567 127.533 78.4634 126.98 69.6516 123.703C60.8397 120.426 53.2162 114.576 47.7701 106.912C42.324 99.249 39.3068 90.1257 39.1099 80.7263C38.913 71.3269 41.5455 62.0853 46.666 54.2006C51.7864 46.3158 59.1583 40.152 67.8251 36.5088C76.492 32.8655 86.0538 31.9112 95.2696 33.7694C104.486 35.6277 112.931 40.2128 119.509 46.9299" stroke="#1D8C8C" stroke-width="18.2"/>
</svg>
